<svg xmlns="http://www.w3.org/2000/svg" viewBox="0 0 247.09 36.51"><defs><style>.cls-1{fill:#231f20;}</style></defs><g id="Layer_2" data-name="Layer 2"><g id="Layer_1-2" data-name="Layer 1"><path class="cls-1" d="M44.09,16V30.61H42.6V16H40.21V14.6h6.28V16Z"/><path class="cls-1" d="M52.42,30.61l-.6-3.29H48.44l-.6,3.29H46.25l3.17-16h1.39l3.2,16ZM50.53,20.38a27.78,27.78,0,0,1-.46-3.76A90.63,90.63,0,0,1,48.68,26h2.9Z"/><path class="cls-1" d="M62,26.38a8.59,8.59,0,0,1-.21,2.21,3.33,3.33,0,0,1-6.29,0,7.62,7.62,0,0,1-.22-2.23V14.6h1.49v12c0,1.34.17,2.8,1.87,2.8,2.09,0,1.87-2.23,1.87-3.69V14.6H62Z"/><path class="cls-1" d="M70.11,30.61l-3.72-7.83v7.83H64.76v-16h2a5.64,5.64,0,0,1,2.76.46c1.44.76,1.73,2.35,1.73,3.84,0,2.2-.74,3.84-3.17,4l3.72,7.68Zm-2.74-9c1.92,0,2.24-1.13,2.24-2.81,0-1.85-.39-2.83-2.43-2.83h-.79v5.64Z"/><path class="cls-1" d="M80.41,26.38a8.6,8.6,0,0,1-.22,2.21,3.33,3.33,0,0,1-6.29,0,7.62,7.62,0,0,1-.22-2.23V14.6h1.49v12c0,1.34.17,2.8,1.88,2.8,2.08,0,1.87-2.23,1.87-3.69V14.6h1.49Z"/><path class="cls-1" d="M88.4,17.12A3,3,0,0,0,86,15.82a2.4,2.4,0,0,0-2.3,2.62c0,3.7,5.47,3.46,5.47,7.9A4.08,4.08,0,0,1,82.66,30V28.09a3.64,3.64,0,0,0,2.59,1.29,2.6,2.6,0,0,0,2.43-2.85c0-3.67-5.47-3.41-5.47-7.9,0-2.18,1.34-4.25,3.69-4.25a4.12,4.12,0,0,1,2.5.87Z"/><path class="cls-1" d="M108.46,30.06a9.9,9.9,0,0,1-3.6.79,8.72,8.72,0,0,1-6.19-2.4,8.41,8.41,0,0,1-2.43-5.83,8.58,8.58,0,0,1,2.43-5.91,8.47,8.47,0,0,1,6-2.49,10,10,0,0,1,3.75.81v5a4.45,4.45,0,0,0-3.63-1.75A4.08,4.08,0,0,0,102,19.3a4.5,4.5,0,0,0-1.39,3.29,4.12,4.12,0,0,0,4.27,4.23,4.74,4.74,0,0,0,3.63-1.68Z"/><path class="cls-1" d="M125.52,28.47a9.55,9.55,0,0,1-12.62,0,8.37,8.37,0,0,1,0-12,9.55,9.55,0,0,1,12.62,0,8.37,8.37,0,0,1,0,12Zm-9.55-9a4.41,4.41,0,0,0-1.27,3.15,4.05,4.05,0,0,0,1.27,3,4.53,4.53,0,0,0,3.24,1.28,4.34,4.34,0,0,0,4.51-4.33,4.34,4.34,0,0,0-1.29-3.07,4.81,4.81,0,0,0-3.22-1.27A4.62,4.62,0,0,0,116,19.42Z"/><path class="cls-1" d="M134.83,14.48V27h5v3.53h-9.15v-16Z"/><path class="cls-1" d="M146.11,14.48V27h5v3.53H142v-16Z"/><path class="cls-1" d="M162.34,18h-5v2.66h4.68V24.2h-4.68V27h5v3.53h-9.1v-16h9.1Z"/><path class="cls-1" d="M176.47,30.06a9.82,9.82,0,0,1-3.6.79,8.73,8.73,0,0,1-6.19-2.4,8.4,8.4,0,0,1-2.42-5.83,8.38,8.38,0,0,1,8.47-8.4,10,10,0,0,1,3.74.81v5a4.43,4.43,0,0,0-3.62-1.75A4.08,4.08,0,0,0,170,19.3a4.46,4.46,0,0,0-1.39,3.29,4.4,4.4,0,0,0,1.29,3.12,4.47,4.47,0,0,0,3,1.11,4.72,4.72,0,0,0,3.62-1.68Z"/><path class="cls-1" d="M185.76,18V30.49h-4.15V18H178.2V14.48h11V18Z"/><path class="cls-1" d="M195.17,14.48v16H191v-16Z"/><path class="cls-1" d="M213,28.47a9.55,9.55,0,0,1-12.62,0,8.37,8.37,0,0,1,0-12,9.55,9.55,0,0,1,12.62,0,8.37,8.37,0,0,1,0,12Zm-9.55-9a4.41,4.41,0,0,0-1.27,3.15,4.05,4.05,0,0,0,1.27,3,4.53,4.53,0,0,0,3.24,1.28,4.34,4.34,0,0,0,4.51-4.33,4.34,4.34,0,0,0-1.29-3.07,4.81,4.81,0,0,0-3.22-1.27A4.62,4.62,0,0,0,203.4,19.42Z"/><path class="cls-1" d="M218.11,30.49v-16h4.15l7.66,9.79V14.48h4.15v16h-4.15l-7.66-9.79v9.79Z"/><path d="M27.94,12.13a3.89,3.89,0,0,0,1.16,1.59,2.54,2.54,0,0,1,.72,3.15c-.14.28,0,.41.21.55a9,9,0,0,0,2.28,1.2A7.1,7.1,0,0,1,35,20.28a3.06,3.06,0,0,1-.1,4.58,3.2,3.2,0,0,1-2,.75,8.74,8.74,0,0,1-2.6-.25c-.55-.13-.54-.12-.45.4a19.43,19.43,0,0,1-.7,9.63c-.46,1.39-.33,1.08-1.56,1.11h-1.1c-.33,0-.44-.1-.37-.45a10.56,10.56,0,0,0,0-4,2.92,2.92,0,0,0-2.24-2.5A14.63,14.63,0,0,0,20.13,29,26.6,26.6,0,0,0,11,30.56a1,1,0,0,0-.64.58A22.56,22.56,0,0,1,7.21,36a1,1,0,0,1-.9.43c-.57,0-1.15,0-1.72,0-.4,0-.43-.13-.23-.44a10.56,10.56,0,0,0,1.72-4.32A9.13,9.13,0,0,0,5.77,28c-.41-1.5-1-2.91-1.56-4.37-.1-.3-.21-.25-.37-.05a2.43,2.43,0,0,0-.48,2A4.21,4.21,0,0,0,4,27.26a1,1,0,0,1,0,1c-.17.35-.28.71-.43,1.07s-.2.47-.6.12a8.23,8.23,0,0,1-2.35-4A16.29,16.29,0,0,1,0,20.77a.69.69,0,0,1,.44-.7c.79-.42,1.55-.87,2.3-1.37a.93.93,0,0,0,.45-.82,12.83,12.83,0,0,1,2.4-7.24,11.73,11.73,0,0,1,6-4.16c.38-.11.49-.17.21-.55-1.69-2.25-.55-4.49,1.08-5.9,0,0,.08,0,.18,0-.12.39-.24.75-.33,1.11A2.57,2.57,0,0,0,14.6,4.48a7.6,7.6,0,0,0,3.21.36.87.87,0,0,1,.71.18c1.88,1.6,3.76,3.2,5.66,4.78a.5.5,0,0,1,.15.76c-.33.62-.65,1.25-.93,1.89a.77.77,0,0,1-.81.5,23.76,23.76,0,0,0-4.3.14,3,3,0,0,0-2.49,1.7c-.27.65-.2.91.38,1.28A11,11,0,0,0,20,17.41a32,32,0,0,1,4.61,1.23A9.65,9.65,0,0,1,28.09,21a12.34,12.34,0,0,0,2.44,2.06,4.38,4.38,0,0,0,1.54.62A1.83,1.83,0,0,0,33.93,23a1.3,1.3,0,0,0-.09-1.68,8.46,8.46,0,0,0-2.16-1.79A21.11,21.11,0,0,1,29.25,18a5,5,0,0,1-1.46-5.59A1.4,1.4,0,0,1,27.94,12.13Z"/><path d="M19.06,36.32c-.29,0-.79.17-1-.09s.26-.59.41-.89a9.23,9.23,0,0,0,.71-5c0-.39.08-.51.43-.54a10.37,10.37,0,0,1,3.68.35c.34.1.46.26.32.63a18,18,0,0,1-3.12,5.28.69.69,0,0,1-.58.26Z"/><path d="M24.79,5A3,3,0,0,1,24,7.46c-.73.85-.75.84-1.59.15l-.86-.76c-.06-.06-.16-.15-.15-.22s.18-.1.28-.1a3.6,3.6,0,0,0,1.93-.42A5.11,5.11,0,0,0,24.79,5Z"/><path class="cls-1" d="M239.51,11V6.89H238V6.18h3.9v.71H240.3V11Zm2.88,0V6.18h1.18l1.2,3.81,1.17-3.81h1.15V11h-.73v-4l-1.23,4h-.72l-1.28-4.06V11Z"/></g></g></svg>