<?xml version="1.0" encoding="UTF-8"?>
<svg xmlns="http://www.w3.org/2000/svg" version="1.1" viewBox="0 0 500 110">
  <!-- Generator: Adobe Illustrator 28.6.0, SVG Export Plug-In . SVG Version: 1.2.0 Build 709)  -->
  <g>
    <g id="Layer_1">
      <g>
        <g>
          <polygon points="94.9 50.3 94.9 80.2 91.9 80.2 91.9 50.3 87 50.3 87 47.6 99.8 47.6 99.8 50.3 94.9 50.3"/>
          <path d="M108,59.4c-.5-2.5-.8-5.1-.9-7.7-.4,6.5-1.7,12.8-2.8,19.2h5.9l-2.2-11.5h0ZM111.9,80.2l-1.2-6.7h-6.9l-1.2,6.7h-3.2l6.5-32.6h2.8l6.5,32.6h-3.2Z"/>
          <path d="M131.4,71.6c0,1.5,0,3-.4,4.5-.8,3-3.3,4.5-6.4,4.5s-5.5-1.5-6.4-4.5c-.4-1.5-.4-3-.4-4.5v-24h3v24.4c0,2.7.3,5.7,3.8,5.7s3.8-4.5,3.8-7.5v-22.6h3v24Z"/>
          <path d="M142.4,61.8c3.9,0,4.5-2.3,4.5-5.7s-.8-5.8-4.9-5.8h-1.6v11.5h2ZM147.9,80.2l-7.6-15.9v15.9h-3.3v-32.6h4.1c1.9,0,3.9,0,5.6.9,2.9,1.6,3.5,4.8,3.5,7.8,0,4.5-1.5,7.8-6.5,8.2l7.6,15.7h-3.5Z"/>
          <path d="M168.9,71.6c0,1.5,0,3-.4,4.5-.8,3-3.3,4.5-6.4,4.5s-5.5-1.5-6.4-4.5c-.4-1.5-.4-3-.4-4.5v-24h3v24.4c0,2.7.3,5.7,3.8,5.7s3.8-4.5,3.8-7.5v-22.6h3v24Z"/>
          <path d="M185.2,52.7c-1.3-1.6-2.7-2.7-4.9-2.7s-4.7,2.5-4.7,5.3c0,7.5,11.2,7.1,11.2,16.1s-3.2,9.2-8.2,9.2-3.7-.6-5.1-1.7v-3.9c1.4,1.5,3.1,2.7,5.3,2.7,3.2,0,4.9-2.9,4.9-5.8,0-7.5-11.2-7-11.2-16.1s2.7-8.7,7.5-8.7,3.5.6,5.1,1.8v3.8h0Z"/>
          <path d="M226.1,79.1c-3.4,1.2-5.2,1.6-7.3,1.6-5.7,0-9.9-2.2-12.6-4.9-3.2-3.2-4.9-7.6-4.9-11.9s2-9.1,4.9-12c2.9-2.9,7.2-5.1,12.3-5.1s4.1.2,7.6,1.7v10.1c-2.7-3.4-6-3.6-7.4-3.6-2.4,0-4.3.7-5.9,2.2-2,1.9-2.8,4.4-2.8,6.7s.9,4.8,2.7,6.4c1.4,1.3,3.7,2.2,6.1,2.2s4.4-.1,7.4-3.4v10h0Z"/>
          <path d="M241.4,57.4c-1.8,1.7-2.6,4.1-2.6,6.4s1.4,4.9,2.6,6.1c1.6,1.5,3.8,2.6,6.6,2.6s5-1,6.6-2.5,2.7-3.8,2.7-6.3-1.1-4.8-2.7-6.3c-1.8-1.7-4.3-2.6-6.6-2.6s-4.9.8-6.6,2.6M260.9,75.8c-3.3,3.2-8,4.9-12.9,4.9s-9.5-1.7-12.9-4.9c-3.5-3.3-5.1-7.9-5.1-12.2s1.7-9,5.1-12.2c3.3-3.2,8-4.9,12.9-4.9s9.5,1.7,12.9,4.9c3.5,3.3,5.1,7.9,5.1,12.2s-1.7,8.8-5.1,12.2"/>
          <polygon points="279.9 47.3 279.9 72.8 290.1 72.8 290.1 80 271.4 80 271.4 47.3 279.9 47.3 279.9 47.3"/>
          <polygon points="302.9 47.3 302.9 72.8 313.1 72.8 313.1 80 294.4 80 294.4 47.3 302.9 47.3 302.9 47.3"/>
          <polygon points="336 54.5 325.9 54.5 325.9 59.9 335.4 59.9 335.4 67.1 325.9 67.1 325.9 72.8 336 72.8 336 80 317.4 80 317.4 47.3 336 47.3 336 54.5"/>
          <polygon points="383.7 54.5 383.7 80 375.3 80 375.3 54.5 368.3 54.5 368.3 47.3 390.7 47.3 390.7 54.5 383.7 54.5"/>
          <rect x="394.5" y="47.3" width="8.5" height="32.6"/>
          <polygon points="449.7 80 449.7 47.3 458.1 47.3 473.8 67.3 473.8 47.3 482.2 47.3 482.2 80 473.8 80 458.1 60 458.1 80 449.7 80"/>
          <path d="M364.8,79.1c-3.4,1.2-5.2,1.6-7.3,1.6-5.7,0-9.9-2.2-12.6-4.9-3.2-3.2-4.9-7.6-4.9-11.9s2-9.1,4.9-12c2.9-2.9,7.2-5.1,12.3-5.1s4.1.2,7.6,1.7v10.1c-2.7-3.4-6-3.6-7.4-3.6-2.4,0-4.3.7-5.9,2.2-2,1.9-2.8,4.4-2.8,6.7s.9,4.8,2.7,6.4c1.4,1.3,3.7,2.2,6.1,2.2s4.4-.1,7.4-3.4v10h0Z"/>
          <path d="M419.7,57.4c-1.8,1.7-2.6,4.1-2.6,6.4s1.4,4.9,2.6,6.1c1.6,1.5,3.8,2.6,6.6,2.6s5-1,6.6-2.5c1.5-1.5,2.7-3.8,2.7-6.3s-1.1-4.8-2.7-6.3c-1.8-1.7-4.3-2.6-6.6-2.6s-4.9.8-6.6,2.6M439.2,75.8c-3.3,3.2-8,4.9-12.9,4.9s-9.5-1.7-12.9-4.9c-3.5-3.3-5.1-7.9-5.1-12.2s1.7-9,5.1-12.2c3.3-3.2,8-4.9,12.9-4.9s9.5,1.7,12.9,4.9c3.5,3.3,5.1,7.9,5.1,12.2s-1.7,8.8-5.1,12.2"/>
          <g>
            <path d="M62,42.5c.5,1.4,1.4,2.3,2.4,3.2,1.8,1.8,2.7,3.9,1.4,6.4-.3.6,0,.8.4,1.1,1.4,1.1,3,1.8,4.6,2.4,2.1.8,4,1.8,5.5,3.4,2.8,2.9,2.7,6.7-.2,9.3-1.2,1.1-2.6,1.4-4.1,1.5-1.8.1-3.6,0-5.3-.5-1.1-.3-1.1-.2-.9.8,1.2,6.7.7,13.2-1.4,19.6-1,2.8-.7,2.2-3.2,2.3h-2.2c-.7,0-.9-.2-.8-.9.6-2.7.6-5.5,0-8.2-.5-2.7-1.9-4.3-4.6-5.1-2.5-.7-5.1-1-7.7-1-6.4,0-12.6,1-18.6,3.1-.6.2-1,.6-1.3,1.2-1.7,3.6-3.8,6.9-6.4,9.9-.5.6-1,.9-1.8.9-1.2,0-2.3,0-3.5,0-.8,0-.9-.3-.5-.9,1.7-2.7,3.1-5.6,3.5-8.8.3-2.5,0-5-.6-7.4-.8-3-2.1-5.9-3.2-8.9-.2-.6-.4-.5-.8-.1-1,1.2-1.2,2.6-1,4.1.2,1.2.6,2.3,1.2,3.4.4.7.5,1.3.1,2.1-.3.7-.6,1.4-.9,2.2-.4,1-.4,1-1.2.2-2.5-2.2-3.9-5-4.8-8.1-.9-3.1-1.2-6.3-1.2-9.6,0-.7.3-1.1.9-1.4,1.6-.9,3.2-1.8,4.7-2.8.6-.4.9-.9.9-1.7.3-5.4,1.6-10.4,4.9-14.8,3.2-4.2,7.3-6.9,12.3-8.5.8-.2,1-.3.4-1.1-3.4-4.6-1.1-9.2,2.2-12,0,0,.2,0,.4,0-.2.8-.5,1.5-.7,2.3-.8,3.4.4,5.7,3.7,6.9,2.1.7,4.3.9,6.5.7.6,0,1,0,1.4.4,3.8,3.3,7.7,6.5,11.6,9.7.6.5.7.9.3,1.5-.7,1.3-1.3,2.5-1.9,3.8-.3.8-.8,1-1.7,1-2.9,0-5.9-.2-8.8.3-2.2.4-4.1,1.2-5.1,3.5-.6,1.3-.4,1.8.8,2.6,2.4,1.6,5.1,2.1,7.9,2.7,3.2.7,6.4,1.3,9.4,2.5,2.7,1.1,5,2.7,7,4.8,1.5,1.6,3.1,3.1,5,4.2,1,.6,2,1,3.2,1.3,1.5.3,2.8-.3,3.8-1.5.8-1,.7-2.2-.2-3.4-1.2-1.5-2.8-2.6-4.4-3.6-1.7-1-3.4-1.9-4.9-3.1-3.3-2.8-4.5-7.4-3-11.4,0-.1.1-.2.3-.5h0Z"/>
            <path d="M43.9,91.8c-.6,0-1.6.3-2-.2-.3-.5.5-1.2.8-1.8,1.6-3.2,1.7-6.7,1.4-10.2,0-.8.2-1.1.9-1.1,2.5-.2,5.1,0,7.5.7.7.2.9.5.6,1.3-1.5,3.9-3.6,7.6-6.3,10.8-.3.4-.7.6-1.2.5h-1.8Z"/>
            <path d="M55.5,28c.3,1.9-.4,3.5-1.6,5-1.5,1.8-1.5,1.7-3.2.3-.6-.5-1.2-1-1.8-1.5-.1-.1-.3-.3-.3-.4,0-.3.4-.2.6-.2,1.4,0,2.7-.2,3.9-.9,1-.6,1.7-1.4,2.4-2.2h0Z"/>
          </g>
        </g>
        <path d="M488.6,34.5c3.7,0,6.4,2.7,6.4,6.4s-2.7,6.4-6.4,6.4-6.4-2.7-6.4-6.4,2.7-6.4,6.4-6.4ZM488.6,35.4c-3.1,0-5.4,2.4-5.4,5.5s2.3,5.5,5.4,5.5,5.4-2.4,5.4-5.5-2.2-5.5-5.4-5.5ZM490.1,44.2l-2.1-2.7v2.7h-1.3v-6.9h1.8c2.2,0,2.5,1.4,2.5,2.1,0,1-.6,1.7-1.5,2l2.3,2.9h-1.6ZM488,40.4h.3c1,0,1.4-.4,1.4-1,0-.9-.9-.9-1.4-.9h-.3v1.9Z"/>
      </g>
    </g>
  </g>
</svg>